<?xml version="1.0" standalone="no"?><svg xmlns="http://www.w3.org/2000/svg" viewBox="0 0 1440 320"><path fill="#faf4e8" fill-opacity="1" d="M0,0L30,32C60,64,120,128,180,170.7C240,213,300,235,360,224C420,213,480,171,540,170.7C600,171,660,213,720,197.3C780,181,840,107,900,106.7C960,107,1020,181,1080,208C1140,235,1200,213,1260,186.7C1320,160,1380,128,1410,112L1440,96L1440,320L1410,320C1380,320,1320,320,1260,320C1200,320,1140,320,1080,320C1020,320,960,320,900,320C840,320,780,320,720,320C660,320,600,320,540,320C480,320,420,320,360,320C300,320,240,320,180,320C120,320,60,320,30,320L0,320Z"></path></svg>